# xmcd
#
# Track frame offsets: 
#        150
#        16165
#        39360
#        56673
#        79640
#        102580
#        119910
#        133683
#        153880
#        172028
#        189725
#        210235
#        232405
#        248740
#        268183
#        275725
#        291858
#
# Disc length: 4107 seconds
#
# Revision: 7
# Processed by: cddbd v1.5.2PL0 Copyright (c) Steve Scherf et al.
# Submitted via: ExactAudioCopyFreeDBPlugin 1.0
#
DISCID=00100911
DTITLE=PRODUCTION PENCIL - PENCIL VOCAL COLLECTION 01
DYEAR=2007
DGENRE=Game
TTITLE0=TAKACO - ハートの風車
TTITLE1=浅香春子 - ステンドグラスの恋
TTITLE2=TAKACO - Heart of Prism
TTITLE3=浅香春子 - 空の果て
TTITLE4=TAKACO - Moonlight Cathedral
TTITLE5=藤井恵美 - ふたりの小さな未来
TTITLE6=桃井はるこ from UNDER17 - 最初と最後のマジック
TTITLE7=かないみか - パンドラの夢
TTITLE8=みとせのりこ - 玩具箱の未来
TTITLE9=TAKACO - Endless Loop
TTITLE10=みとせのりこ - 鳥のように抱いて
TTITLE11=みとせのりこ - 楽園のゆりかご
TTITLE12=桃井はるこ from UNDER17 - ラブけろぱにっく！
TTITLE13=SAKKO - 放課後のパティシエ
TTITLE14=コメート&プリンセア - ハートの風車 声優さんバージョン
TTITLE15=UNDER17 - 最初と最後のマジック UNDER17 ver.
TTITLE16=UNDER17 - ラブけろぱにっく！ UNDER17 ver.
EXTD=YEAR: 2007
EXTT0=
EXTT1=
EXTT2=
EXTT3=
EXTT4=
EXTT5=
EXTT6=
EXTT7=
EXTT8=
EXTT9=
EXTT10=
EXTT11=
EXTT12=
EXTT13=
EXTT14=
EXTT15=
EXTT16=
PLAYORDER=
